<?xml version="1.0" standalone="no"?>
<!DOCTYPE svg PUBLIC "-//W3C//DTD SVG 20010904//EN"
 "http://www.w3.org/TR/2001/REC-SVG-20010904/DTD/svg10.dtd">
<svg version="1.0" xmlns="http://www.w3.org/2000/svg"
 width="507.000000pt" height="492.000000pt" viewBox="0 0 507.000000 492.000000"
 preserveAspectRatio="xMidYMid meet">

<g transform="translate(0.000000,492.000000) scale(0.100000,-0.100000)"
fill="#000000" stroke="none">
<path d="M2256 4580 c-54 -5 -102 -10 -107 -12 -5 -2 103 -4 239 -5 334 -2
487 -24 752 -108 445 -141 857 -460 1132 -875 107 -163 216 -415 253 -587 40
-188 27 -440 -31 -612 -40 -116 -140 -305 -204 -384 -215 -270 -536 -485 -910
-611 -217 -73 -356 -96 -613 -103 -339 -9 -603 44 -860 174 -26 13 -52 21 -57
18 -6 -4 -10 -1 -10 5 0 6 -4 8 -10 5 -5 -3 -10 -1 -10 5 0 6 -4 8 -10 5 -5
-3 -10 -1 -10 5 0 7 -7 9 -16 6 -12 -5 -15 -2 -10 11 4 10 4 14 0 11 -3 -4
-13 -1 -21 7 -8 8 -20 15 -26 15 -7 0 -3 -7 7 -15 11 -8 16 -15 12 -15 -4 0
-30 19 -57 42 -48 40 -49 41 -69 23 -11 -10 -20 -13 -20 -7 0 7 -6 12 -14 12
-8 0 -16 6 -19 14 -7 17 -57 28 -57 12 0 -6 -7 -3 -14 7 -15 20 -27 22 -24 5
2 -7 -6 -13 -18 -14 -11 0 -21 5 -21 12 0 7 4 11 9 8 4 -3 8 0 8 5 0 6 -6 11
-14 11 -8 0 -17 8 -21 18 -7 16 -8 16 -14 -1 -6 -17 -11 -15 -44 19 -60 63
-51 33 17 -52 137 -171 376 -338 621 -434 44 -17 94 -37 110 -44 102 -44 303
-107 385 -120 19 -3 49 -8 65 -11 17 -3 90 -10 164 -16 156 -13 339 -1 486 32
145 31 176 39 225 54 30 9 60 20 65 25 6 4 23 10 38 14 43 10 250 113 322 161
40 26 177 126 191 139 7 6 31 26 55 45 24 19 85 76 134 126 84 86 113 121 239
293 28 40 45 57 41 42 -12 -44 -57 -155 -66 -164 -5 -6 -9 -23 -9 -39 0 -36
-40 -137 -98 -247 -139 -263 -384 -529 -665 -722 -199 -136 -532 -275 -782
-326 -220 -46 -507 -52 -737 -17 -367 55 -739 217 -1019 443 -105 85 -283 272
-376 396 -148 198 -289 486 -347 707 -77 299 -55 620 64 906 52 124 86 184
171 305 155 218 359 404 597 542 34 21 62 39 62 42 0 8 -79 -38 -210 -124 -92
-60 -147 -107 -270 -231 -170 -170 -244 -269 -328 -436 -93 -187 -135 -333
-151 -535 -17 -197 -18 -239 -9 -234 4 3 7 -7 7 -23 -1 -17 -3 -21 -6 -10 -6
23 -19 22 -36 -4 -8 -11 -21 -21 -28 -23 -8 -1 -19 -5 -25 -9 -6 -3 -14 -3
-18 0 -3 4 -15 7 -26 8 -22 2 -22 0 17 -175 120 -542 478 -1056 958 -1376 125
-83 376 -207 510 -253 109 -37 305 -86 400 -100 208 -31 496 -35 715 -10 452
52 910 272 1257 602 275 263 467 566 583 917 79 238 106 387 126 680 7 114
-16 360 -51 535 -65 326 -241 684 -463 945 -68 79 -78 90 -67 71 6 -10 4 -12
-4 -7 -7 5 -16 18 -21 31 -6 16 -15 22 -27 19 -11 -3 -27 3 -38 16 -18 20 -18
20 -1 14 14 -5 17 -3 14 7 -4 11 -24 13 -95 11 -81 -2 -92 0 -115 20 -30 28
-59 33 -52 9 3 -9 -1 -5 -9 9 -9 14 -18 23 -22 21 -4 -2 -41 21 -83 51 -42 30
-99 68 -127 84 -27 16 -59 35 -70 42 -48 30 -218 107 -315 143 -130 48 -312
94 -450 114 -129 19 -392 27 -524 15z m1649 -508 c-3 -3 -11 0 -18 7 -9 10 -8
11 6 5 10 -3 15 -9 12 -12z m182 -54 c-3 -8 -6 -5 -6 6 -1 11 2 17 5 13 3 -3
4 -12 1 -19z m-3750 -1910 c-3 -7 -5 -2 -5 12 0 14 2 19 5 13 2 -7 2 -19 0
-25z m1318 -528 c3 -5 -1 -10 -9 -10 -9 0 -16 5 -16 10 0 6 4 10 9 10 6 0 13
-4 16 -10z"/>
<path d="M2118 4033 c6 -2 18 -2 25 0 6 3 1 5 -13 5 -14 0 -19 -2 -12 -5z"/>
<path d="M1992 4018 c-30 -5 -52 -12 -49 -14 5 -5 149 16 156 22 7 7 -51 2
-107 -8z"/>
<path d="M1855 3985 c-54 -17 -33 -18 30 -1 28 8 41 14 30 14 -11 0 -38 -5
-60 -13z"/>
<path d="M1788 3963 c7 -3 16 -2 19 1 4 3 -2 6 -13 5 -11 0 -14 -3 -6 -6z"/>
<path d="M1695 3940 c-27 -10 -43 -18 -35 -18 8 0 38 8 65 18 28 10 43 18 35
18 -8 0 -37 -8 -65 -18z"/>
<path d="M1605 3910 c-13 -6 -15 -9 -5 -9 8 0 22 4 30 9 18 12 2 12 -25 0z"/>
<path d="M3432 3901 c-18 -9 -30 -20 -26 -24 4 -4 -3 -7 -16 -7 -19 0 -21 -3
-12 -12 15 -15 16 -38 1 -38 -5 0 -8 4 -4 9 3 5 0 13 -7 17 -13 8 -58 15 -58
9 0 -11 123 -74 133 -69 7 4 9 3 4 -1 -4 -5 28 -31 70 -59 92 -59 319 -277
407 -391 177 -227 285 -491 305 -744 11 -134 27 -161 93 -161 51 0 74 13 94
52 45 86 -31 431 -144 657 -85 170 -274 412 -414 532 -35 30 -65 56 -68 59
-13 15 -174 130 -181 130 -4 0 -25 12 -46 26 -21 14 -45 23 -55 21 -10 -3 -21
-1 -24 4 -7 11 -12 11 -52 -10z"/>
<path d="M834 3854 c-143 -164 -265 -351 -351 -539 -37 -81 3 -19 59 90 63
123 160 273 241 373 99 120 109 132 104 132 -2 0 -26 -25 -53 -56z"/>
<path d="M1530 3880 c-8 -5 -10 -10 -5 -10 6 0 17 5 25 10 8 5 11 10 5 10 -5
0 -17 -5 -25 -10z"/>
<path d="M1470 3855 c-14 -8 -20 -14 -15 -14 6 0 21 6 35 14 14 8 21 14 15 14
-5 0 -21 -6 -35 -14z"/>
<path d="M1395 3820 c-3 -6 1 -7 9 -4 18 7 21 14 7 14 -6 0 -13 -4 -16 -10z"/>
<path d="M1360 3800 c-9 -6 -10 -10 -3 -10 6 0 15 5 18 10 8 12 4 12 -15 0z"/>
<path d="M3955 3630 c10 -11 20 -20 23 -20 3 0 -3 9 -13 20 -10 11 -20 20 -23
20 -3 0 3 -9 13 -20z"/>
<path d="M4050 3506 c0 -2 7 -9 15 -16 13 -11 14 -10 9 4 -5 14 -24 23 -24 12z"/>
<path d="M4106 3437 c3 -10 9 -15 12 -12 3 3 0 11 -7 18 -10 9 -11 8 -5 -6z"/>
<path d="M2776 3079 c3 -5 -3 -9 -13 -9 -26 0 -83 -37 -83 -54 0 -10 -13 -16
-42 -18 -35 -2 -42 -6 -40 -20 2 -12 -4 -18 -18 -19 -11 -1 -23 -2 -27 -3 -5
-1 -23 -6 -42 -10 -53 -13 -103 -38 -151 -76 -62 -48 -85 -76 -117 -140 -15
-30 -31 -56 -35 -58 -5 -2 -8 -10 -8 -18 0 -8 -5 -14 -11 -14 -5 0 -7 5 -4 10
3 6 -1 10 -10 10 -9 0 -19 -9 -22 -20 -4 -15 -14 -20 -40 -20 -19 0 -32 -4
-29 -9 3 -5 -1 -14 -9 -21 -8 -7 -15 -21 -15 -32 0 -17 -3 -18 -15 -8 -13 11
-15 7 -15 -27 0 -173 110 -372 262 -476 29 -20 89 -48 133 -63 68 -23 97 -28
195 -28 124 0 191 14 282 60 64 33 128 91 128 117 0 20 -101 127 -120 127 -4
0 -27 -16 -51 -35 -69 -55 -152 -78 -264 -73 -79 3 -101 8 -158 36 -228 113
-278 430 -98 626 63 68 163 106 281 106 92 0 160 -23 225 -75 30 -25 60 -45
67 -45 18 0 118 99 118 116 0 21 -82 100 -129 123 -22 12 -55 21 -73 21 -22 0
-29 3 -20 9 10 6 7 10 -12 13 -14 3 -23 1 -20 -3z m-609 -451 c-3 -8 -6 -5 -6
6 -1 11 2 17 5 13 3 -3 4 -12 1 -19z m40 -20 c-3 -8 -6 -5 -6 6 -1 11 2 17 5
13 3 -3 4 -12 1 -19z"/>
<path d="M3426 3053 c-3 -21 -6 -55 -6 -76 1 -25 -4 -39 -15 -43 -10 -4 -15
-20 -15 -50 0 -43 -1 -44 -33 -44 -18 0 -38 -5 -45 -12 -8 -8 -15 -8 -27 2
-13 11 -16 9 -16 -16 -11 -822 -11 -805 7 -825 16 -18 35 -19 380 -19 418 0
384 -9 384 102 0 102 16 97 -298 99 -150 2 -275 6 -277 10 -3 3 -6 166 -7 360
-2 420 -6 549 -18 549 -4 0 -11 -17 -14 -37z"/>
<path d="M1168 2944 c-16 -5 -18 -24 -18 -219 0 -179 2 -214 15 -219 13 -4 15
24 17 202 l3 207 137 0 c131 -1 138 -2 195 -31 44 -22 66 -42 92 -81 19 -29
36 -51 38 -49 9 9 -30 76 -64 110 -64 65 -108 79 -263 82 -74 2 -143 1 -152
-2z"/>
<path d="M1796 2835 c4 -26 0 -50 -10 -70 -12 -22 -16 -25 -16 -11 0 27 -50
-73 -52 -104 -1 -14 -12 -35 -25 -47 -13 -12 -23 -27 -23 -33 0 -5 -4 -10 -10
-10 -5 0 -7 -6 -4 -13 4 -11 -25 -32 -56 -42 -3 -1 -18 -7 -35 -14 -16 -7 -43
-15 -58 -18 -21 -4 -25 -8 -15 -14 9 -6 7 -9 -9 -9 -12 0 -24 4 -28 10 -3 5
-13 6 -22 3 -11 -4 -14 -3 -9 5 4 7 1 12 -8 12 -9 0 -15 -5 -14 -12 4 -17
-137 -18 -178 -2 -18 7 -36 9 -40 5 -13 -10 -64 -31 -64 -26 0 2 15 12 33 21
38 20 20 31 -20 12 -17 -8 -28 -21 -28 -33 0 -13 -7 -20 -20 -21 -29 -1 -55
-14 -55 -29 0 -20 -26 -65 -33 -58 -4 3 -7 -73 -7 -170 0 -203 -3 -197 93
-197 92 0 96 7 99 185 l3 150 190 5 c188 5 191 5 257 37 189 89 266 299 179
486 l-20 42 5 -40z m-746 -489 c0 -3 -4 -8 -10 -11 -5 -3 -10 -1 -10 4 0 6 5
11 10 11 6 0 10 -2 10 -4z"/>
<path d="M2965 660 c4 -6 11 -8 16 -5 14 9 11 15 -7 15 -8 0 -12 -5 -9 -10z"/>
<path d="M3040 653 c0 -5 10 -9 23 -9 173 -11 226 -12 177 -5 -92 14 -200 22
-200 14z"/>
</g>
</svg>
